<?xml version="1.0" encoding="utf-8"?>
<!-- Generator: Adobe Illustrator 19.0.0, SVG Export Plug-In . SVG Version: 6.00 Build 0)  -->
<svg version="1.1" id="Capa_1" xmlns="http://www.w3.org/2000/svg" xmlns:xlink="http://www.w3.org/1999/xlink" x="0px" y="0px"
	 viewBox="137.5 322 198.4 198.4" style="enable-background:new 137.5 322 198.4 198.4;" xml:space="preserve">
<style type="text/css">
	.st0{fill:url(#SVGID_1_);}
	.st1{fill:#FFFFFF;}
</style>
<g>
	
		<linearGradient id="SVGID_1_" gradientUnits="userSpaceOnUse" x1="-236.8965" y1="583.062" x2="-236.8965" y2="880.6291" gradientTransform="matrix(0.6667 0 0 0.6667 394.6203 -66.6814)">
		<stop  offset="0" style="stop-color:#0ED4FC"/>
		<stop  offset="1" style="stop-color:#0C57EF"/>
	</linearGradient>
	<path class="st0" d="M295.8,322H177.5c-22.1,0-40.1,17.9-40.1,40.1v118.2c0,22.1,17.9,40.1,40.1,40.1h118.3
		c22.1,0,40.1-17.9,40.1-40.1V362.1C335.8,340,317.9,322,295.8,322z"/>
	<path class="st1" d="M235.8,367.6l4-7c2.5-4.4,8-5.8,12.3-3.3c4.4,2.5,5.8,8,3.3,12.3l-38.7,67h28c9.1,0,14.2,10.7,10.2,18h-82.1
		c-5,0-9-4-9-9c0-5,4-9,9-9h23l29.5-51.1l-9.2-15.9c-2.5-4.4-1-9.8,3.3-12.3c4.4-2.5,9.8-1,12.3,3.3L235.8,367.6z M201,464
		l-8.7,15.1c-2.5,4.4-8,5.8-12.3,3.3c-4.4-2.5-5.8-8-3.3-12.3l6.4-11.2C190.4,456.7,196.3,458.4,201,464L201,464z M275.7,436.7h23.5
		c5,0,9,4,9,9c0,5-4,9-9,9h-13.1l8.8,15.3c2.5,4.4,1,9.8-3.3,12.3c-4.4,2.5-9.8,1-12.3-3.3c-14.8-25.7-26-45-33.4-57.8
		c-7.6-13.1-2.2-26.1,3.2-30.6C255.1,400.9,263.9,416.3,275.7,436.7L275.7,436.7z"/>
</g>
</svg>
