<?xml version="1.0" encoding="utf-8"?>
<!-- Generator: Adobe Illustrator 19.0.0, SVG Export Plug-In . SVG Version: 6.00 Build 0)  -->
<svg version="1.1" id="Capa_1" xmlns="http://www.w3.org/2000/svg" xmlns:xlink="http://www.w3.org/1999/xlink" x="0px" y="0px"
	 viewBox="925.1 320.7 198.4 198.4" style="enable-background:new 925.1 320.7 198.4 198.4;" xml:space="preserve">
<style type="text/css">
	.st0{fill:#424242;}
	.st1{fill:none;}
</style>
<g id="Layer_x0020_1">
	<g id="_246135032">
		<path id="_246135440" class="st0" d="M1022.3,339.5c0.4,1.8,0.5,3.6,0.6,5.5l0,0.7l-0.6,0.3c-2.3,1-5.1,2.2-6.8,4.2
			c-2.5,2.9-2.6,7.6-2.6,11.2v7.6l-7.2,1.4v-9c0-6.7,0.9-14.1,6.5-18.4c2.6-2,5.7-3.1,8.7-4.1l1.1-0.4L1022.3,339.5L1022.3,339.5z
			 M1035.7,335.3c3-0.4,6.2-0.8,9.2-0.5c2.3,0.2,4.4,0.9,6.2,2.4c2.1,1.8,3.1,4.5,3.7,7.2c0.8,3.8,0.9,8,0.9,11.9v4l-7.1,1.5v-5.5
			c0-2.6,0.1-5.4-0.2-7.9c-0.2-1.5-0.5-3.4-1.6-4.5c-2.1-2.3-7.1-1.7-9.9-1.4l-1.1,0.2l-0.1-1.1c-0.2-1.7-0.4-3.3-0.8-5l-0.2-1.1
			L1035.7,335.3L1035.7,335.3z M985,374.5l-7.2,1.4v-26c0-8.7,2.1-17,9.7-22.2c4.7-3.2,10.6-4.6,16.1-5.8c7.8-1.8,17.8-2.6,23.8,3.9
			c4.7,5.1,5.5,13.3,5.5,19.9v19.1l-7.2,1.4v-21c0-2.4-0.1-4.8-0.6-7.1c-0.3-1.6-0.8-3.1-1.6-4.5c-1.3-2.3-3.3-3.8-5.9-4.6
			c-3.9-1.2-8.6-0.6-12.5,0.3c-5.5,1.3-12.3,3.2-16.1,7.6c-3.2,3.7-4,8.6-4,13.4V374.5L985,374.5z"/>
		<path id="_246134792" class="st0" d="M1109.7,506.9V370.6v-1.5l-1.4-0.5l-27.7-10.1l-1.1-0.1l-138.9,27.8l-1.7,0.3v1.7v101v1.7
			l1.7,0.3l138.9,27.8l1.1-0.1l27.7-10.1l1.4-0.5L1109.7,506.9L1109.7,506.9z M1010.6,404.4l38.8-5.7l2.4-0.4v2.5v33.8v2.1h-2.1
			h-38.8h-2.1v-2.1v-28.1v-1.8L1010.6,404.4L1010.6,404.4z M1003.8,434.6v2.1h-2.1h-30.8h-2.1v-2.1v-23.5v-1.8l1.8-0.3l30.8-4.4
			l2.4-0.3v2.4L1003.8,434.6L1003.8,434.6z M970.9,441.4h30.8h2.1v2.1v29.9v2.4l-2.4-0.3l-30.8-4.4l-1.8-0.3v-1.8v-25.6v-2.1H970.9
			L970.9,441.4z M1010.9,441.4h38.8h2.1v2.1v35.8v2.5l-2.4-0.3l-38.8-5.7l-1.8-0.3v-1.8v-30.2v-2.1H1010.9L1010.9,441.4z"/>
	</g>
</g>
<rect x="1089" y="-952.2" class="st1" width="2048" height="2048"/>
<rect x="925.1" y="320.7" class="st1" width="198.4" height="198.4"/>
</svg>
