<?xml version="1.0" encoding="utf-8"?>
<!-- Generator: Adobe Illustrator 19.0.0, SVG Export Plug-In . SVG Version: 6.00 Build 0)  -->
<svg version="1.1" id="Layer_1" xmlns="http://www.w3.org/2000/svg" xmlns:xlink="http://www.w3.org/1999/xlink" x="0px" y="0px"
	 viewBox="1733.7 326.7 198.4 198.4" style="enable-background:new 1733.7 326.7 198.4 198.4;" xml:space="preserve">
<style type="text/css">
	.st0{fill:url(#SVGID_1_);}
	.st1{fill:url(#SVGID_2_);}
	.st2{fill:url(#SVGID_3_);}
	.st3{fill:url(#SVGID_4_);}
	.st4{fill:none;}
</style>
<g>
	
		<linearGradient id="SVGID_1_" gradientUnits="userSpaceOnUse" x1="1619.1366" y1="769.4815" x2="1639.9099" y2="769.4815" gradientTransform="matrix(5.3545 0 0 -5.3545 -6923.4111 4494.4629)">
		<stop  offset="0" style="stop-color:#63BE6B"/>
		<stop  offset="0.506" style="stop-color:#5BBC6A"/>
		<stop  offset="1" style="stop-color:#4AB96A"/>
	</linearGradient>
	<path class="st0" d="M1857.4,387.2l-104.9-59.9c-1.3-0.8-3-0.7-4.3,0c-1.3,0.8-2.1,2.1-2.1,3.7c0,0,0,5.5,0.1,14.6l76.4,76.4
		L1857.4,387.2z"/>
	
		<linearGradient id="SVGID_2_" gradientUnits="userSpaceOnUse" x1="1619.1525" y1="760.6467" x2="1633.4247" y2="760.6467" gradientTransform="matrix(5.3545 0 0 -5.3545 -6923.4111 4494.4629)">
		<stop  offset="0" style="stop-color:#3EC6F2"/>
		<stop  offset="1" style="stop-color:#45AFE3"/>
	</linearGradient>
	<path class="st1" d="M1746.3,345.5c0.1,32.8,0.5,112.5,0.7,152.1l75.7-75.7L1746.3,345.5z"/>
	
		<linearGradient id="SVGID_3_" gradientUnits="userSpaceOnUse" x1="1633.4088" y1="760.1664" x2="1651.5229" y2="760.1664" gradientTransform="matrix(5.3545 0 0 -5.3545 -6923.4111 4494.4629)">
		<stop  offset="0" style="stop-color:#FAA51A"/>
		<stop  offset="0.387" style="stop-color:#FAB716"/>
		<stop  offset="0.741" style="stop-color:#FAC412"/>
		<stop  offset="1" style="stop-color:#FAC80F"/>
	</linearGradient>
	<path class="st2" d="M1917.4,421.5l-60-34.3l-34.8,34.8l39.3,39.3l55.6-32.4c1.3-0.8,2.1-2.2,2.1-3.7
		C1919.6,423.6,1918.8,422.2,1917.4,421.5z"/>
	
		<linearGradient id="SVGID_4_" gradientUnits="userSpaceOnUse" x1="1619.2715" y1="750.9486" x2="1640.7512" y2="750.9486" gradientTransform="matrix(5.3545 0 0 -5.3545 -6923.4111 4494.4629)">
		<stop  offset="0" style="stop-color:#EC3B50"/>
		<stop  offset="1" style="stop-color:#E7515B"/>
	</linearGradient>
	<path class="st3" d="M1746.9,497.7c0.1,14.2,0.1,23.2,0.1,23.2c0,1.5,0.8,2.9,2.1,3.7c1.3,0.8,2.9,0.8,4.3,0l108.5-63.3l-39.3-39.3
		L1746.9,497.7z"/>
</g>
<rect x="1733.7" y="326.7" class="st4" width="198.4" height="198.4"/>
</svg>
